<mxfile host="app.diagrams.net" modified="2024-03-25T06:24:21.778Z" agent="Mozilla/5.0 (Windows NT 10.0; Win64; x64) AppleWebKit/537.36 (KHTML, like Gecko) Chrome/122.0.0.0 Safari/537.36 Edg/122.0.0.0" etag="_gjQ9jt23LuEoBWRxuvh" version="24.0.7" type="github">
  <diagram name="第 1 页" id="JYNkp1Xinc-zoWy4LI0d">
    <mxGraphModel dx="734" dy="1036" grid="1" gridSize="10" guides="1" tooltips="1" connect="1" arrows="1" fold="1" page="1" pageScale="1" pageWidth="827" pageHeight="1169" math="0" shadow="0">
      <root>
        <mxCell id="0" />
        <mxCell id="1" parent="0" />
        <mxCell id="Vmhqhq8OLO8lI01ucydd-9" value="" style="edgeStyle=orthogonalEdgeStyle;rounded=0;orthogonalLoop=1;jettySize=auto;html=1;labelBackgroundColor=none;strokeColor=#A8201A;fontColor=default;fontStyle=1;fontFamily=Times New Roman;strokeWidth=2;" edge="1" parent="1" source="Vmhqhq8OLO8lI01ucydd-1" target="Vmhqhq8OLO8lI01ucydd-3">
          <mxGeometry relative="1" as="geometry" />
        </mxCell>
        <mxCell id="Vmhqhq8OLO8lI01ucydd-1" value="开始" style="strokeWidth=2;html=1;shape=mxgraph.flowchart.start_1;whiteSpace=wrap;labelBackgroundColor=none;fillColor=#FAE5C7;strokeColor=#0F8B8D;fontColor=#143642;fontStyle=1;fontFamily=Times New Roman;" vertex="1" parent="1">
          <mxGeometry x="215" y="90" width="110" height="40" as="geometry" />
        </mxCell>
        <mxCell id="Vmhqhq8OLO8lI01ucydd-10" value="" style="edgeStyle=orthogonalEdgeStyle;rounded=0;orthogonalLoop=1;jettySize=auto;html=1;labelBackgroundColor=none;strokeColor=#A8201A;fontColor=default;fontStyle=1;fontFamily=Times New Roman;" edge="1" parent="1" source="Vmhqhq8OLO8lI01ucydd-3" target="Vmhqhq8OLO8lI01ucydd-5">
          <mxGeometry relative="1" as="geometry" />
        </mxCell>
        <mxCell id="Vmhqhq8OLO8lI01ucydd-12" value="" style="edgeStyle=orthogonalEdgeStyle;rounded=0;orthogonalLoop=1;jettySize=auto;html=1;labelBackgroundColor=none;strokeColor=#A8201A;fontColor=default;fontStyle=1;fontFamily=Times New Roman;strokeWidth=2;" edge="1" parent="1" source="Vmhqhq8OLO8lI01ucydd-3" target="Vmhqhq8OLO8lI01ucydd-5">
          <mxGeometry relative="1" as="geometry" />
        </mxCell>
        <mxCell id="Vmhqhq8OLO8lI01ucydd-3" value="随机选择信道" style="rounded=1;whiteSpace=wrap;html=1;absoluteArcSize=1;arcSize=14;strokeWidth=2;labelBackgroundColor=none;fillColor=#FAE5C7;strokeColor=#0F8B8D;fontColor=#143642;fontStyle=1;fontFamily=Times New Roman;" vertex="1" parent="1">
          <mxGeometry x="220" y="160" width="100" height="50" as="geometry" />
        </mxCell>
        <mxCell id="Vmhqhq8OLO8lI01ucydd-4" value="执行DIFS(12次CAD)" style="rounded=1;whiteSpace=wrap;html=1;absoluteArcSize=1;arcSize=14;strokeWidth=2;labelBackgroundColor=none;fillColor=#FAE5C7;strokeColor=#0F8B8D;fontColor=#143642;" vertex="1" parent="1">
          <mxGeometry x="680" y="220" width="100" height="50" as="geometry" />
        </mxCell>
        <mxCell id="Vmhqhq8OLO8lI01ucydd-7" value="" style="edgeStyle=orthogonalEdgeStyle;rounded=0;orthogonalLoop=1;jettySize=auto;html=1;labelBackgroundColor=none;strokeColor=#A8201A;fontColor=default;fontStyle=1;fontFamily=Times New Roman;" edge="1" parent="1" source="Vmhqhq8OLO8lI01ucydd-5" target="Vmhqhq8OLO8lI01ucydd-6">
          <mxGeometry relative="1" as="geometry" />
        </mxCell>
        <mxCell id="Vmhqhq8OLO8lI01ucydd-11" value="" style="edgeStyle=orthogonalEdgeStyle;rounded=0;orthogonalLoop=1;jettySize=auto;html=1;labelBackgroundColor=none;strokeColor=#A8201A;fontColor=default;fontStyle=1;fontFamily=Times New Roman;strokeWidth=2;" edge="1" parent="1" source="Vmhqhq8OLO8lI01ucydd-5" target="Vmhqhq8OLO8lI01ucydd-6">
          <mxGeometry relative="1" as="geometry" />
        </mxCell>
        <mxCell id="Vmhqhq8OLO8lI01ucydd-13" value="12次均空闲" style="edgeLabel;html=1;align=center;verticalAlign=middle;resizable=0;points=[];labelBackgroundColor=none;fontColor=#143642;fontStyle=1;fontFamily=Times New Roman;" vertex="1" connectable="0" parent="Vmhqhq8OLO8lI01ucydd-11">
          <mxGeometry x="-0.2147" y="-2" relative="1" as="geometry">
            <mxPoint x="42" as="offset" />
          </mxGeometry>
        </mxCell>
        <mxCell id="Vmhqhq8OLO8lI01ucydd-35" style="edgeStyle=orthogonalEdgeStyle;rounded=0;orthogonalLoop=1;jettySize=auto;html=1;entryX=0.5;entryY=0;entryDx=0;entryDy=0;entryPerimeter=0;labelBackgroundColor=none;strokeColor=#A8201A;fontColor=default;fontStyle=1;fontFamily=Times New Roman;strokeWidth=2;" edge="1" parent="1" source="Vmhqhq8OLO8lI01ucydd-5" target="Vmhqhq8OLO8lI01ucydd-5">
          <mxGeometry relative="1" as="geometry">
            <mxPoint x="280" y="230" as="targetPoint" />
            <Array as="points">
              <mxPoint x="355" y="290" />
              <mxPoint x="355" y="250" />
            </Array>
          </mxGeometry>
        </mxCell>
        <mxCell id="Vmhqhq8OLO8lI01ucydd-36" value="繁忙" style="edgeLabel;html=1;align=center;verticalAlign=middle;resizable=0;points=[];labelBackgroundColor=none;fontColor=#143642;fontStyle=1;fontFamily=Times New Roman;" vertex="1" connectable="0" parent="Vmhqhq8OLO8lI01ucydd-35">
          <mxGeometry x="-0.3735" y="1" relative="1" as="geometry">
            <mxPoint x="16" y="5" as="offset" />
          </mxGeometry>
        </mxCell>
        <mxCell id="Vmhqhq8OLO8lI01ucydd-5" value="执行DIFS(12次CAD)" style="strokeWidth=2;html=1;shape=mxgraph.flowchart.decision;whiteSpace=wrap;labelBackgroundColor=none;fillColor=#FAE5C7;strokeColor=#0F8B8D;fontColor=#143642;fontStyle=1;fontFamily=Times New Roman;" vertex="1" parent="1">
          <mxGeometry x="205" y="250" width="130" height="80" as="geometry" />
        </mxCell>
        <mxCell id="Vmhqhq8OLO8lI01ucydd-17" value="" style="edgeStyle=orthogonalEdgeStyle;rounded=0;orthogonalLoop=1;jettySize=auto;html=1;labelBackgroundColor=none;strokeColor=#A8201A;fontColor=default;fontStyle=1;fontFamily=Times New Roman;strokeWidth=2;" edge="1" parent="1" source="Vmhqhq8OLO8lI01ucydd-6" target="Vmhqhq8OLO8lI01ucydd-16">
          <mxGeometry relative="1" as="geometry" />
        </mxCell>
        <mxCell id="Vmhqhq8OLO8lI01ucydd-6" value="生成退避次数N" style="whiteSpace=wrap;html=1;strokeWidth=2;labelBackgroundColor=none;fillColor=#FAE5C7;strokeColor=#0F8B8D;fontColor=#143642;fontStyle=1;fontFamily=Times New Roman;" vertex="1" parent="1">
          <mxGeometry x="215" y="380" width="110" height="50" as="geometry" />
        </mxCell>
        <mxCell id="Vmhqhq8OLO8lI01ucydd-8" style="edgeStyle=orthogonalEdgeStyle;rounded=0;orthogonalLoop=1;jettySize=auto;html=1;exitX=0.5;exitY=1;exitDx=0;exitDy=0;exitPerimeter=0;labelBackgroundColor=none;strokeColor=#A8201A;fontColor=default;fontStyle=1;fontFamily=Times New Roman;" edge="1" parent="1" source="Vmhqhq8OLO8lI01ucydd-1" target="Vmhqhq8OLO8lI01ucydd-1">
          <mxGeometry relative="1" as="geometry" />
        </mxCell>
        <mxCell id="Vmhqhq8OLO8lI01ucydd-19" value="" style="edgeStyle=orthogonalEdgeStyle;rounded=0;orthogonalLoop=1;jettySize=auto;html=1;labelBackgroundColor=none;strokeColor=#A8201A;fontColor=default;fontStyle=1;fontFamily=Times New Roman;strokeWidth=2;" edge="1" parent="1" source="Vmhqhq8OLO8lI01ucydd-16" target="Vmhqhq8OLO8lI01ucydd-18">
          <mxGeometry relative="1" as="geometry" />
        </mxCell>
        <mxCell id="Vmhqhq8OLO8lI01ucydd-20" value="空闲" style="edgeLabel;html=1;align=center;verticalAlign=middle;resizable=0;points=[];labelBackgroundColor=none;fontColor=#143642;fontStyle=1;fontFamily=Times New Roman;" vertex="1" connectable="0" parent="Vmhqhq8OLO8lI01ucydd-19">
          <mxGeometry x="-0.2206" y="-1" relative="1" as="geometry">
            <mxPoint x="21" as="offset" />
          </mxGeometry>
        </mxCell>
        <mxCell id="Vmhqhq8OLO8lI01ucydd-16" value="对应信道CAD" style="rhombus;whiteSpace=wrap;html=1;strokeWidth=2;labelBackgroundColor=none;fillColor=#FAE5C7;strokeColor=#0F8B8D;fontColor=#143642;fontStyle=1;fontFamily=Times New Roman;" vertex="1" parent="1">
          <mxGeometry x="200" y="460" width="140" height="60" as="geometry" />
        </mxCell>
        <mxCell id="Vmhqhq8OLO8lI01ucydd-25" value="" style="edgeStyle=orthogonalEdgeStyle;rounded=0;orthogonalLoop=1;jettySize=auto;html=1;labelBackgroundColor=none;strokeColor=#A8201A;fontColor=default;fontStyle=1;fontFamily=Times New Roman;strokeWidth=2;" edge="1" parent="1" source="Vmhqhq8OLO8lI01ucydd-18" target="Vmhqhq8OLO8lI01ucydd-24">
          <mxGeometry relative="1" as="geometry" />
        </mxCell>
        <mxCell id="Vmhqhq8OLO8lI01ucydd-18" value="退避次数N-1" style="whiteSpace=wrap;html=1;strokeWidth=2;labelBackgroundColor=none;fillColor=#FAE5C7;strokeColor=#0F8B8D;fontColor=#143642;fontStyle=1;fontFamily=Times New Roman;" vertex="1" parent="1">
          <mxGeometry x="210" y="570" width="120" height="50" as="geometry" />
        </mxCell>
        <mxCell id="Vmhqhq8OLO8lI01ucydd-27" value="" style="edgeStyle=orthogonalEdgeStyle;rounded=0;orthogonalLoop=1;jettySize=auto;html=1;labelBackgroundColor=none;strokeColor=#A8201A;fontColor=default;fontStyle=1;fontFamily=Times New Roman;strokeWidth=2;" edge="1" parent="1" source="Vmhqhq8OLO8lI01ucydd-24" target="Vmhqhq8OLO8lI01ucydd-26">
          <mxGeometry relative="1" as="geometry" />
        </mxCell>
        <mxCell id="Vmhqhq8OLO8lI01ucydd-29" value="是" style="edgeLabel;html=1;align=center;verticalAlign=middle;resizable=0;points=[];labelBackgroundColor=none;fontColor=#143642;fontStyle=1;fontFamily=Times New Roman;" vertex="1" connectable="0" parent="Vmhqhq8OLO8lI01ucydd-27">
          <mxGeometry x="-0.3263" y="1" relative="1" as="geometry">
            <mxPoint x="9" as="offset" />
          </mxGeometry>
        </mxCell>
        <mxCell id="Vmhqhq8OLO8lI01ucydd-28" style="edgeStyle=orthogonalEdgeStyle;rounded=0;orthogonalLoop=1;jettySize=auto;html=1;entryX=1;entryY=0.5;entryDx=0;entryDy=0;labelBackgroundColor=none;strokeColor=#A8201A;fontColor=default;fontStyle=1;fontFamily=Times New Roman;strokeWidth=2;" edge="1" parent="1" source="Vmhqhq8OLO8lI01ucydd-24" target="Vmhqhq8OLO8lI01ucydd-16">
          <mxGeometry relative="1" as="geometry">
            <Array as="points">
              <mxPoint x="360" y="690" />
              <mxPoint x="360" y="490" />
            </Array>
          </mxGeometry>
        </mxCell>
        <mxCell id="Vmhqhq8OLO8lI01ucydd-30" value="否" style="edgeLabel;html=1;align=center;verticalAlign=middle;resizable=0;points=[];labelBackgroundColor=none;fontColor=#143642;fontStyle=1;fontFamily=Times New Roman;" vertex="1" connectable="0" parent="Vmhqhq8OLO8lI01ucydd-28">
          <mxGeometry x="-0.3098" relative="1" as="geometry">
            <mxPoint x="10" y="-32" as="offset" />
          </mxGeometry>
        </mxCell>
        <mxCell id="Vmhqhq8OLO8lI01ucydd-24" value="N=0？" style="rhombus;whiteSpace=wrap;html=1;strokeWidth=2;labelBackgroundColor=none;fillColor=#FAE5C7;strokeColor=#0F8B8D;fontColor=#143642;fontStyle=1;fontFamily=Times New Roman;" vertex="1" parent="1">
          <mxGeometry x="200" y="660" width="140" height="60" as="geometry" />
        </mxCell>
        <mxCell id="Vmhqhq8OLO8lI01ucydd-40" value="" style="edgeStyle=orthogonalEdgeStyle;rounded=0;orthogonalLoop=1;jettySize=auto;html=1;labelBackgroundColor=none;strokeColor=#A8201A;fontColor=default;fontStyle=1;fontFamily=Times New Roman;strokeWidth=2;" edge="1" parent="1" source="Vmhqhq8OLO8lI01ucydd-26" target="Vmhqhq8OLO8lI01ucydd-39">
          <mxGeometry relative="1" as="geometry" />
        </mxCell>
        <mxCell id="Vmhqhq8OLO8lI01ucydd-26" value="发送数据" style="whiteSpace=wrap;html=1;strokeWidth=2;labelBackgroundColor=none;fillColor=#FAE5C7;strokeColor=#0F8B8D;fontColor=#143642;fontStyle=1;fontFamily=Times New Roman;" vertex="1" parent="1">
          <mxGeometry x="210" y="760" width="120" height="50" as="geometry" />
        </mxCell>
        <mxCell id="Vmhqhq8OLO8lI01ucydd-31" style="edgeStyle=orthogonalEdgeStyle;rounded=0;orthogonalLoop=1;jettySize=auto;html=1;entryX=0;entryY=0.5;entryDx=0;entryDy=0;entryPerimeter=0;labelBackgroundColor=none;strokeColor=#A8201A;fontColor=default;fontStyle=1;fontFamily=Times New Roman;strokeWidth=2;" edge="1" parent="1" source="Vmhqhq8OLO8lI01ucydd-16" target="Vmhqhq8OLO8lI01ucydd-5">
          <mxGeometry relative="1" as="geometry">
            <Array as="points">
              <mxPoint x="180" y="490" />
              <mxPoint x="180" y="290" />
            </Array>
          </mxGeometry>
        </mxCell>
        <mxCell id="Vmhqhq8OLO8lI01ucydd-32" value="繁忙" style="edgeLabel;html=1;align=center;verticalAlign=middle;resizable=0;points=[];labelBackgroundColor=none;fontColor=#143642;fontStyle=1;fontFamily=Times New Roman;" vertex="1" connectable="0" parent="Vmhqhq8OLO8lI01ucydd-31">
          <mxGeometry x="-0.0087" y="1" relative="1" as="geometry">
            <mxPoint x="-19" y="1" as="offset" />
          </mxGeometry>
        </mxCell>
        <mxCell id="Vmhqhq8OLO8lI01ucydd-38" value="&lt;font style=&quot;font-size: 16px;&quot;&gt;退避阶段&lt;/font&gt;" style="shape=curlyBracket;whiteSpace=wrap;html=1;rounded=1;flipH=1;labelPosition=right;verticalLabelPosition=middle;align=left;verticalAlign=middle;labelBackgroundColor=none;fillColor=#FAE5C7;strokeColor=#0F8B8D;fontColor=#143642;fontStyle=1;fontFamily=Times New Roman;strokeWidth=3;" vertex="1" parent="1">
          <mxGeometry x="414" y="230" width="20" height="500" as="geometry" />
        </mxCell>
        <mxCell id="Vmhqhq8OLO8lI01ucydd-39" value="结束" style="ellipse;whiteSpace=wrap;html=1;strokeWidth=2;labelBackgroundColor=none;fillColor=#FAE5C7;strokeColor=#0F8B8D;fontColor=#143642;fontStyle=1;fontFamily=Times New Roman;" vertex="1" parent="1">
          <mxGeometry x="210" y="840" width="120" height="35" as="geometry" />
        </mxCell>
        <mxCell id="Vmhqhq8OLO8lI01ucydd-44" value="" style="endArrow=none;dashed=1;html=1;rounded=0;strokeColor=#A8201A;fontColor=#143642;fillColor=#FAE5C7;strokeWidth=2;" edge="1" parent="1">
          <mxGeometry width="50" height="50" relative="1" as="geometry">
            <mxPoint x="135" y="230" as="sourcePoint" />
            <mxPoint x="405" y="230" as="targetPoint" />
          </mxGeometry>
        </mxCell>
        <mxCell id="Vmhqhq8OLO8lI01ucydd-45" value="" style="endArrow=none;dashed=1;html=1;rounded=0;strokeColor=#A8201A;fontColor=#143642;fillColor=#FAE5C7;strokeWidth=2;" edge="1" parent="1">
          <mxGeometry width="50" height="50" relative="1" as="geometry">
            <mxPoint x="135" y="730" as="sourcePoint" />
            <mxPoint x="405" y="730" as="targetPoint" />
          </mxGeometry>
        </mxCell>
        <mxCell id="Vmhqhq8OLO8lI01ucydd-46" value="" style="endArrow=none;dashed=1;html=1;rounded=0;strokeColor=#A8201A;fontColor=#143642;fillColor=#FAE5C7;strokeWidth=2;" edge="1" parent="1">
          <mxGeometry width="50" height="50" relative="1" as="geometry">
            <mxPoint x="135" y="140" as="sourcePoint" />
            <mxPoint x="405" y="140" as="targetPoint" />
          </mxGeometry>
        </mxCell>
      </root>
    </mxGraphModel>
  </diagram>
</mxfile>
